<?xml version="1.0" encoding="UTF-8"?>
<svg version="1.1" xmlns="http://www.w3.org/2000/svg" width="24" height="24">
<path d="M0 0 C6.6 0 13.2 0 20 0 C20 5.28 20 10.56 20 16 C13.4 16 6.8 16 0 16 C0 10.72 0 5.44 0 0 Z M3 3 C3 3.66 3 4.32 3 5 C3.66 5 4.32 5 5 5 C5 4.34 5 3.68 5 3 C4.34 3 3.68 3 3 3 Z M3 7 C3 7.66 3 8.32 3 9 C6.96 9 10.92 9 15 9 C15 8.34 15 7.68 15 7 C11.04 7 7.08 7 3 7 Z M3 11 C3 11.66 3 12.32 3 13 C5.64 13 8.28 13 11 13 C11 12.34 11 11.68 11 11 C8.36 11 5.72 11 3 11 Z " fill="#000000" transform="translate(2,4)"/>
</svg>
