<?xml version="1.0" encoding="UTF-8"?>
<svg version="1.1" xmlns="http://www.w3.org/2000/svg" width="48" height="48">
<path d="M0 0 C0.73541016 0.00202423 1.47082031 0.00404846 2.22851562 0.00613403 C2.97939453 0.00517731 3.73027344 0.00422058 4.50390625 0.00323486 C6.09440189 0.00255315 7.6849003 0.00440682 9.27539062 0.00857544 C11.71816217 0.01392386 14.16074984 0.00863019 16.60351562 0.00222778 C18.1451827 0.00288857 19.68684966 0.00416973 21.22851562 0.00613403 C21.96392578 0.0041098 22.69933594 0.00208557 23.45703125 0 C28.61356402 0.02399493 28.61356402 0.02399493 29.72851562 1.13894653 C29.82798015 2.90753846 29.8593178 4.68006104 29.86132812 6.45144653 C29.86326172 8.06406372 29.86326172 8.06406372 29.86523438 9.70925903 C29.86136719 10.84105591 29.8575 11.97285278 29.85351562 13.13894653 C29.85931641 14.83664185 29.85931641 14.83664185 29.86523438 16.56863403 C29.86394531 17.64371216 29.86265625 18.71879028 29.86132812 19.82644653 C29.8602002 20.82031372 29.85907227 21.81418091 29.85791016 22.83816528 C29.72851562 25.13894653 29.72851562 25.13894653 28.72851562 26.13894653 C26.21927409 26.23981865 23.73815179 26.27866686 21.22851562 26.27175903 C20.47763672 26.27271576 19.72675781 26.27367249 18.953125 26.2746582 C17.36262936 26.27533991 15.77213095 26.27348625 14.18164062 26.26931763 C11.73886908 26.2639692 9.29628141 26.26926287 6.85351562 26.27566528 C5.31184855 26.2750045 3.77018159 26.27372333 2.22851562 26.27175903 C1.49310547 26.27378326 0.75769531 26.2758075 0 26.27789307 C-5.15653277 26.25389814 -5.15653277 26.25389814 -6.27148438 25.13894653 C-6.3709489 23.3703546 -6.40228655 21.59783202 -6.40429688 19.82644653 C-6.40558594 18.75136841 -6.406875 17.67629028 -6.40820312 16.56863403 C-6.40240234 14.87093872 -6.40240234 14.87093872 -6.39648438 13.13894653 C-6.40035156 12.00714966 -6.40421875 10.87535278 -6.40820312 9.70925903 C-6.40691406 8.63418091 -6.405625 7.55910278 -6.40429688 6.45144653 C-6.40316895 5.45757935 -6.40204102 4.46371216 -6.40087891 3.43972778 C-6.15552079 -0.92301733 -3.8087017 0.01772306 0 0 Z M19.22070312 8.45144653 C18.68703125 9.00832153 18.15335938 9.56519653 17.60351562 10.13894653 C17.0646875 10.69582153 16.52585937 11.25269653 15.97070312 11.82644653 C15.56078125 12.25957153 15.15085937 12.69269653 14.72851562 13.13894653 C14.15101562 12.78832153 13.57351562 12.43769653 12.97851562 12.07644653 C10.84591837 11.00515332 10.84591837 11.00515332 8.85351562 11.20144653 C5.58034346 12.64549308 3.34861313 14.69749204 0.72851562 17.13894653 C0.72851562 17.79894653 0.72851562 18.45894653 0.72851562 19.13894653 C3.00144504 18.12004714 4.55876123 17.32992023 6.22851562 15.45144653 C6.72351563 15.01832153 7.21851563 14.58519653 7.72851562 14.13894653 C9.87576367 14.4160108 11.61724937 15.09466944 13.62304688 15.89285278 C15.83041299 16.38894675 15.83041299 16.38894675 17.65039062 14.77566528 C18.25367187 14.1324231 18.85695313 13.48918091 19.47851562 12.82644653 C20.09210937 12.19093872 20.70570312 11.55543091 21.33789062 10.90066528 C22.93504491 9.25137668 22.93504491 9.25137668 22.72851562 7.13894653 C20.64676551 6.92009131 20.64676551 6.92009131 19.22070312 8.45144653 Z " fill="#000000" transform="translate(12.271484375,8.861053466796875)"/>
<path d="M0 0 C14.52 0 29.04 0 44 0 C44 0.99 44 1.98 44 3 C29.48 3 14.96 3 0 3 C0 2.01 0 1.02 0 0 Z " fill="#000000" transform="translate(2,36)"/>
</svg>
