<?xml version="1.0" encoding="UTF-8"?>
<svg version="1.1" xmlns="http://www.w3.org/2000/svg" width="50" height="50">
<path d="M0 0 C1.25554688 -0.00128906 2.51109375 -0.00257813 3.8046875 -0.00390625 C4.46178711 -0.00181152 5.11888672 0.0002832 5.79589844 0.00244141 C7.80411335 0.00779016 9.81210459 0.00249559 11.8203125 -0.00390625 C13.07585938 -0.00261719 14.33140625 -0.00132812 15.625 0 C16.78644531 0.00112793 17.94789062 0.00225586 19.14453125 0.00341797 C21.8125 0.1328125 21.8125 0.1328125 22.8125 1.1328125 C22.88575168 3.99548817 22.90488205 6.8335315 22.875 9.6953125 C22.87048828 10.50162109 22.86597656 11.30792969 22.86132812 12.13867188 C22.84950518 14.13675006 22.83156914 16.13479033 22.8125 18.1328125 C25.1225 17.8028125 27.4325 17.4728125 29.8125 17.1328125 C29.1525 16.4728125 28.4925 15.8128125 27.8125 15.1328125 C27.8125 13.8128125 27.8125 12.4928125 27.8125 11.1328125 C32.44233765 11.98010305 35.10644589 14.35350982 37.8125 18.1328125 C38.11822272 21.19003967 37.38565346 22.41891425 35.4921875 24.77734375 C33.99109919 26.38780785 32.59707381 27.84099414 30.8125 29.1328125 C29.8225 29.1328125 28.8325 29.1328125 27.8125 29.1328125 C28.6875 24.2578125 28.6875 24.2578125 29.8125 23.1328125 C27.5025 22.8028125 25.1925 22.4728125 22.8125 22.1328125 C22.82410156 23.34839844 22.83570312 24.56398438 22.84765625 25.81640625 C22.85703278 27.40104014 22.86613313 28.98567568 22.875 30.5703125 C22.88337891 31.37275391 22.89175781 32.17519531 22.90039062 33.00195312 C22.9090143 35.04576471 22.8647815 37.08965152 22.8125 39.1328125 C20.98215945 40.96315305 18.08038008 40.26324047 15.625 40.265625 C14.36945312 40.26691406 13.11390625 40.26820312 11.8203125 40.26953125 C11.16321289 40.26743652 10.50611328 40.2653418 9.82910156 40.26318359 C7.82088665 40.25783484 5.81289541 40.26312941 3.8046875 40.26953125 C2.54914062 40.26824219 1.29359375 40.26695313 0 40.265625 C-1.16144531 40.26449707 -2.32289062 40.26336914 -3.51953125 40.26220703 C-6.1875 40.1328125 -6.1875 40.1328125 -7.1875 39.1328125 C-7.28853255 36.33287653 -7.32720088 33.55812606 -7.3203125 30.7578125 C-7.32126923 29.91814941 -7.32222595 29.07848633 -7.32321167 28.21337891 C-7.32389348 26.43456955 -7.32203917 24.65575773 -7.31787109 22.87695312 C-7.31252283 20.14447474 -7.31781605 17.41216074 -7.32421875 14.6796875 C-7.32355797 12.9557288 -7.32227681 11.23177021 -7.3203125 9.5078125 C-7.32233673 8.68490723 -7.32436096 7.86200195 -7.32644653 7.01416016 C-7.29718243 -0.01819964 -6.90521943 0.00670596 0 0 Z M8.8125 19.1328125 C8.8125 19.7928125 8.8125 20.4528125 8.8125 21.1328125 C13.4325 21.1328125 18.0525 21.1328125 22.8125 21.1328125 C22.8125 20.4728125 22.8125 19.8128125 22.8125 19.1328125 C18.1925 19.1328125 13.5725 19.1328125 8.8125 19.1328125 Z " fill="#000000" transform="translate(12.1875,4.8671875)"/>
</svg>
